<svg version="1.2" xmlns="http://www.w3.org/2000/svg" viewBox="0 0 297 45" width="198" height="30">
	<title>2-svg</title>
	<style>
		.s0 { fill: none } 
		.s1 { fill: #76c4ef } 
		.s2 { fill: #1a93dd } 
		.s3 { fill: #333333 } 
	</style>
	<g id="Layer">
		<g id="Layer">
			<g id="Layer">
				<path id="Layer" class="s0" d="m21 144.7h60v50.6h-60z"/>
				<g id="Layer">
					<g id="Layer">
						<path id="Layer" class="s1" d="m26.7 0.7c4.9-0.1 9.1 4 9 9.1 0.1 3.6-2.2 7-5.6 8.4-3.4 1.4-7.3 0.6-9.9-2-2.6-2.6-3.4-6.5-2-9.9 1.5-3.4 4.8-5.6 8.5-5.6z"/>
						<path id="Layer" class="s2" d="m25.6 32.5q0 0.5-0.1 0.9 0 0.4 0 0.9-0.1 0.4-0.2 0.9 0 0.4-0.1 0.9c-0.1 0.2-0.1 0.4-0.4 0.1-1.9-1.8-4.1-3.1-6.5-4.3-3.2-1.7-6.6-3.2-9.6-5.2-2.6-1.7-4.8-3.8-6.2-6.5-1.4-2.7-1.7-5.5-1.5-8.5q0.1-0.7 0.2-1.4c0-0.1 0-0.2 0.1-0.2 0.2-0.1 0.2 0.1 0.2 0.1 2.1 3 5 4.9 8.1 6.6 2.6 1.5 5.4 2.7 8 4.2q0.6 0.3 1.1 0.7 0.5 0.3 1 0.7 0.5 0.3 1 0.7 0.5 0.4 1 0.8c1.6 1.5 2.9 3.3 3.5 5.5q0.1 0.4 0.2 0.8 0 0.4 0.1 0.7 0 0.4 0.1 0.8 0 0.4 0 0.8zm26.4-22.6q0.1 0.2 0.1 0.4 0.1 0.2 0.1 0.5 0 0.2 0.1 0.4 0 0.2 0 0.4c0.4 4.7-0.8 8.8-4.1 12.3q-0.7 0.6-1.3 1.1-0.7 0.6-1.4 1.1-0.7 0.5-1.4 1-0.8 0.5-1.5 0.9c-2.5 1.4-5.1 2.6-7.6 3.9-2.1 1.1-4.2 2.3-6 3.9q-0.3 0.3-0.7 0.6-0.1-0.1-0.1-0.3-0.1-0.2-0.1-0.3-0.1-0.2-0.1-0.4 0-0.2 0-0.3c-0.5-2.8-0.3-5.4 1-7.9q0.3-0.6 0.7-1.1 0.4-0.5 0.8-1 0.4-0.5 0.9-0.9 0.4-0.5 0.9-0.8c2.3-1.9 4.9-3.2 7.4-4.5 2.6-1.3 5.3-2.6 7.7-4.3q0.6-0.5 1.3-1 0.6-0.5 1.2-1.1 0.6-0.6 1.1-1.2 0.5-0.7 1-1.4zm-2.4 20q0 0.6-0.1 1.1-0.1 0.6-0.3 1.1-0.1 0.5-0.3 1-0.2 0.5-0.5 1c-1.2 2.4-3.2 4-5.5 5.3-2.1 1.1-4.3 1.8-6.5 2.5-0.9 0.3-1.9 0.5-2.8 0.8-1.6 0.4-3.2 0.8-4.8 1.3-0.3 0.1-0.4 0.1-0.3-0.2 1.3-4.7 3.9-8.3 8.7-9.9 2.2-0.7 4.4-1.1 6.7-1.7 1.9-0.5 3.7-1.1 5.5-2.2 0 0 0.1 0 0.2-0.1zm-45.9 0.2c0-0.1 0-0.2 0.2-0.1 2.6 1.7 5.6 2.2 8.6 2.9 2.3 0.6 4.6 1.2 6.7 2.5 2.6 1.7 4.2 4.2 5.2 7.1q0.2 0.6 0.3 1.2c0.1 0.1 0.2 0.2 0 0.3-0.1 0.1-0.2 0-0.3 0-1-0.3-2-0.6-3-0.9-2.9-0.8-5.9-1.5-8.7-2.7-2.3-0.9-4.4-2-6.1-3.8-1.7-1.8-2.6-4-2.9-6.5z"/>
					</g>
				</g>
			</g>
		</g>
		<g id="Layer">
			<g id="Layer">
				<g id="Layer">
					<g id="Layer">
						<path id="Layer" fill-rule="evenodd" class="s3" d="m70.1 18.8q0 0.8 0.9 1.3 0.9 0.5 2.7 1.1 2.3 0.7 3.7 1.4 1.5 0.7 2.6 2.2 1 1.4 1 3.8 0 7.6-9.8 7.6-1.7 0-4-0.3-2.3-0.3-4.2-0.8 0-0.8 0.3-2.5 0.3-1.6 0.5-2.4 1.4 0.2 4.3 0.5 2.9 0.2 4.3 0.2 0.9 0 1.1-0.1 0.2-0.1 0.3-0.5 0.2-0.4 0.2-0.7 0-0.8-0.8-1.2-0.8-0.5-2.6-1.1-2.3-0.7-3.7-1.4-1.5-0.7-2.6-2.3-1.1-1.5-1.1-4.1 0-1.8 0.8-3.5 0.8-1.7 1.7-2.3 0.6-0.5 2.7-0.9 2-0.4 3.8-0.4 4.6 0 7.4 0.9 0 0.8-0.2 2.2-0.2 1.4-0.5 2.6h-0.9q-5.3-0.4-6.8-0.4-0.6 0-0.7 0-0.1 0.1-0.3 0.4-0.1 0.3-0.1 0.7zm17.6-4.1q-1.4 0-2.4-1-1-0.9-1-2.2 0-1.3 1-2.3 1-0.9 2.4-0.9 1.4 0 2.3 0.9 1 1 1 2.3 0 1.3-1 2.2-0.9 1-2.3 1zm-3.5 21v-18.7h6.9v18.7zm39.7-17.4q0.7 1 0.7 7.6v9.8h-7v-11.4q0-1.5-0.3-1.7-0.3-0.4-1.4-0.4l-0.4 0.1q-1.3 0.1-2.4 0.5 0 0.9 0 3.1v9.8h-7v-11.6q0-1.3-0.3-1.5-0.3-0.4-1.3-0.4l-0.5 0.1q-1.2 0-2.4 0.5v12.9h-7v-18.7h5.7l0.7 3q1.4-1.8 3.1-2.6 1.8-0.8 3.6-0.8 1.5 0 2.8 0.4 1.4 0.5 1.9 1.3 0.3 0.3 0.4 1.3 1.3-1.6 3-2.3 1.7-0.7 3.4-0.7 1.5 0 2.8 0.4 1.4 0.5 1.9 1.3zm16.8-1.7q2.9 0 4.6 1.9 1.7 1.9 1.7 6.7 0 3.6-0.6 5.9-0.7 2.2-1.6 3-0.9 0.7-3.1 1.2-2.3 0.4-4.6 0.4-0.7 0-2.3-0.1v5.8l-7 0.3v-24.7h5.7l0.7 2.9q1-1.5 2.7-2.4 1.6-0.9 3.8-0.9zm-1.7 14.1q0.5-0.3 0.7-1.8 0.2-1.5 0.2-2.9 0-2.3-0.6-3.4-0.6-1.1-2.3-1.1-1.2 0-2.2 0.2v9.1l1.1 0.1q0.5 0 1.5 0 1.4 0 1.6-0.2zm10.9 5v-24.4l7-0.3v24.7zm21.7-4.9q1.1 0 3.8-0.2 0.4 0 1.4-0.1l0.6 4.2q-3.2 1.5-8.2 1.5-4.6 0-7.1-2.4-2.6-2.3-2.6-7.1 0-2.4 0.7-4.7 0.6-2.3 1.4-3.2 0.9-0.9 3.2-1.5 2.3-0.7 4.6-0.7 3.7 0 5.5 1.3 1.8 1.3 2.4 3.6 0.6 2.3 0.6 6.2-2.8 0.1-5.4 0.1h-5.8q0 1.3 0.5 2 0.6 0.7 1.6 0.8 1 0.2 2.8 0.2zm-4.5-9.3q-0.3 0.1-0.4 1-0.1 0.9-0.1 2.1h2.1q1.9 0 2.7 0 0-2-0.5-2.8-0.6-0.8-1.9-0.8-1.1 0-1.9 0.5zm17-9h7.3v14.9q0 3.1-0.5 5-0.6 1.9-2.1 2.9-1.4 0.9-4 0.9-2.8 0-5.8-0.5l0.6-4.7q1.1 0.1 2.6 0 1.5-0.1 1.7-0.3 0.2-0.5 0.2-2 0-1.5 0-1.7zm20 23.7q-4.9 0-7.3-2.3-2.4-2.3-2.4-7.3 0-2.7 0.5-4.8 0.5-2 1.2-2.8 0.9-1.1 3.4-1.8 2.6-0.7 4.8-0.7 5.2 0 7.4 2.3 2.3 2.2 2.3 7.1 0 5.3-2.4 7.8-2.4 2.5-7.5 2.5zm0.1-4.8q1.6 0 2.1-1.1 0.5-1.1 0.5-4 0-2-0.2-3-0.2-1.1-0.8-1.6-0.5-0.5-1.7-0.5-1.6 0-1.8 0.3-0.4 0.2-0.6 1.7-0.2 1.6-0.2 3.2 0 2.8 0.6 3.9 0.5 1.1 2.1 1.1zm25-14.9q3.2 0 4.9 1.9 1.7 2 1.7 6.8 0 3.5-0.7 6-0.7 2.6-1.6 3.2-1 0.9-3.1 1.3-2.1 0.4-4.7 0.4-2.1 0-4.6-0.3-2.5-0.3-4.5-0.9v-23.7l7-0.2v3.8q0 0.3 0 1.5 0 1.2-0.1 2-0.1 0.8-0.2 1.2l0.2 0.2q0.9-1.4 2.4-2.3 1.4-0.9 3.3-0.9zm-1.1 14.7q0.2-0.4 0.4-1.9 0.2-1.5 0.2-2.9 0-1.6-0.2-2.5-0.1-1-0.7-1.5-0.5-0.6-1.6-0.6-1.1 0-2.6 0.3v9.2q1.5 0.3 3.1 0.3 1.2 0 1.4-0.4zm23-14.7q3.2 0 4.9 1.9 1.8 2 1.8 6.8 0 3.5-0.8 6-0.7 2.6-1.6 3.2-1 0.9-3.1 1.3-2.1 0.4-4.7 0.4-2.1 0-4.6-0.3-2.5-0.3-4.5-0.9v-23.7l7-0.2v3.8q0 0.3 0 1.5 0 1.2-0.1 2-0.1 0.8-0.2 1.2l0.2 0.2q1-1.4 2.4-2.3 1.4-0.9 3.3-0.9zm-1.1 14.7q0.2-0.4 0.4-1.9 0.2-1.5 0.2-2.9 0-1.6-0.2-2.5-0.1-1-0.6-1.5-0.6-0.6-1.7-0.6-1.1 0-2.6 0.3v9.2q1.5 0.3 3.1 0.3 1.2 0 1.4-0.4zm21.8-0.4q1 0 3.8-0.2 0.4 0 1.3-0.1l0.6 4.2q-3.1 1.5-8.1 1.5-4.7 0-7.2-2.4-2.5-2.4-2.5-7.1 0-2.5 0.6-4.8 0.7-2.2 1.5-3.1 0.8-0.9 3.2-1.6 2.3-0.6 4.6-0.6 3.6 0 5.5 1.3 1.8 1.3 2.4 3.6 0.5 2.3 0.5 6.1-2.7 0.2-5.4 0.2h-5.8q0 1.3 0.6 2 0.5 0.6 1.5 0.8 1.1 0.2 2.9 0.2zm-4.6-9.4q-0.2 0.1-0.3 1.1-0.2 0.9-0.2 2.1h2.1q1.9 0 2.8-0.1 0-1.9-0.6-2.7-0.5-0.8-1.8-0.8-1.1 0-2 0.4zm24.9-4.9q0.5 0 1.1 0.2 0.6 0.1 0.9 0.2 0 0.9-0.2 3-0.2 2-0.4 2.9-0.4 0-1.5 0-2.6 0-4.6 0.2v12.7h-6.9v-18.8h5.8l0.8 3q1.2-1.5 2.6-2.4 1.3-1 2.4-1z"/>
					</g>
				</g>
			</g>
		</g>
	</g>
</svg>